<?xml version="1.0" encoding="UTF-8" standalone="no"?>
<svg
   xmlns:dc="http://purl.org/dc/elements/1.1/"
   xmlns:cc="http://creativecommons.org/ns#"
   xmlns:rdf="http://www.w3.org/1999/02/22-rdf-syntax-ns#"
   xmlns:svg="http://www.w3.org/2000/svg"
   xmlns="http://www.w3.org/2000/svg"
   xmlns:sodipodi="http://sodipodi.sourceforge.net/DTD/sodipodi-0.dtd"
   xmlns:inkscape="http://www.inkscape.org/namespaces/inkscape"
   viewBox="0 0 24 24"
   version="1.1"
   id="svg833"
   sodipodi:docname="if_logo_brand_brands_logos_translate_google_1916050.svg"
   inkscape:version="0.92.3 (2405546, 2018-03-11)"
   inkscape:export-filename="D:\Hoj\Desktop\bitmap.png"
   inkscape:export-xdpi="510.638"
   inkscape:export-ydpi="510.638">
  <metadata
     id="metadata839">
    <rdf:RDF>
      <cc:Work
         rdf:about="">
        <dc:format>image/svg+xml</dc:format>
        <dc:type
           rdf:resource="http://purl.org/dc/dcmitype/StillImage" />
      </cc:Work>
    </rdf:RDF>
  </metadata>
  <defs
     id="defs837" />
  <sodipodi:namedview
     pagecolor="#ffffff"
     bordercolor="#666666"
     borderopacity="1"
     objecttolerance="10"
     gridtolerance="10"
     guidetolerance="10"
     inkscape:pageopacity="0"
     inkscape:pageshadow="2"
     inkscape:window-width="1920"
     inkscape:window-height="1017"
     id="namedview835"
     showgrid="false"
     inkscape:zoom="25.013902"
     inkscape:cx="11.747538"
     inkscape:cy="14.473251"
     inkscape:window-x="-8"
     inkscape:window-y="-8"
     inkscape:window-maximized="1"
     inkscape:current-layer="svg833" />
  <title
     id="title828" />
  <g
     data-name="Google Translate"
     id="Google_Translate">
    <path
       style="fill:#303c42"
       d="M 2 0 C 0.8954305 0 0 0.8954305 0 2 L 0 18 C 0 19.104569 0.8954305 20 2 20 L 11.650391 20 L 13 23.679688 C 13.07487 23.873722 13.262731 24.001464 13.470703 24 L 22 24 C 23.104569 24 24 23.104569 24 22 L 24 6 C 24 4.8954305 23.104569 4 22 4 L 12.230469 4 L 11 0.33984375 C 10.928503 0.12715828 10.724076 -0.01169573 10.5 0 L 2 0 z M 12.570312 5 L 22 5 C 22.552285 5 23 5.4477153 23 6 L 23 22 C 23 22.552285 22.552285 23 22 23 L 14.599609 23 L 17.369141 19.830078 C 17.482417 19.697492 17.518488 19.514225 17.460938 19.349609 L 16.550781 16.689453 C 16.904929 16.417034 17.239117 16.120935 17.550781 15.800781 C 18.550781 16.800781 19.479922 17.710859 19.669922 17.880859 C 20.163255 18.334192 20.842942 17.593958 20.349609 17.140625 C 19.879609 16.710625 19.020703 15.889063 18.220703 15.039062 C 19.22134 13.868013 19.975051 12.507722 20.439453 11.039062 L 21.5 11.039062 C 22.166666 11.039062 22.166666 10.039062 21.5 10.039062 L 18 10.039062 L 18 9.5 C 18 8.8333336 17 8.8333336 17 9.5 L 17 10 L 14.5 10 C 14.43082 9.984824 14.35824 9.984824 14.289062 10 L 12.570312 5 z M 9.9023438 6.8359375 L 9.671875 11.673828 L 8.875 11.673828 L 8.9121094 10.513672 L 7.4296875 10.513672 C 7.0474296 11.168498 6.3657281 11.557151 5.3710938 11.669922 C 3.8328993 11.662977 3.0099827 10.845703 2.9023438 9.2207031 C 2.9127604 7.7554253 3.735677 6.9741753 5.3710938 6.8769531 C 6.4945606 6.9059458 7.2165908 7.3017114 7.5566406 8.046875 L 9 7.7519531 L 9.0273438 6.9609375 L 9.9023438 6.8359375 z M 5.34375 7.7734375 C 4.2951389 7.8845486 3.7847222 8.3637152 3.8125 9.2109375 C 3.8680553 10.273437 4.378472 10.804687 5.34375 10.804688 C 6.2951389 10.749134 6.8235677 10.217884 6.9277344 9.2109375 C 6.9138457 8.2526042 6.3854169 7.7734375 5.34375 7.7734375 z M 8.9746094 8.6269531 L 7.7597656 8.8378906 C 7.7723956 8.9620674 7.7874199 9.0846966 7.7871094 9.2207031 C 7.7782581 9.3823357 7.7571491 9.5338366 7.7304688 9.6796875 L 8.9375 9.6425781 L 8.9746094 8.6269531 z M 14.619141 11 L 19.400391 11 C 18.97018 12.193628 18.339994 13.305022 17.539062 14.289062 C 17.116225 13.847122 16.757825 13.350606 16.470703 12.810547 C 16.21737 12.190547 15.28573 12.569453 15.539062 13.189453 C 15.893303 13.87409 16.346432 14.505028 16.880859 15.060547 C 16.674767 15.278023 16.457434 15.484094 16.230469 15.679688 L 14.619141 11 z M 3.9277344 12.373047 L 9.109375 12.376953 L 9.6308594 12.992188 L 9.4277344 15.992188 L 8.609375 15.673828 L 8.765625 13.185547 L 4.03125 13.236328 L 3.9277344 12.373047 z "
       id="path830" />
  </g>
  <g
     aria-label="역"
     style="font-style:normal;font-variant:normal;font-weight:normal;font-stretch:normal;font-size:9px;line-height:25px;font-family:SeoulNamsan;-inkscape-font-specification:SeoulNamsan;letter-spacing:0px;word-spacing:0px;fill:#000000;fill-opacity:1;stroke:none;stroke-width:1px;stroke-linecap:butt;stroke-linejoin:miter;stroke-opacity:1"
     id="text843"
     transform="translate(-0.07995555,0.23986662)" />
</svg>
